<?xml version="1.0" standalone="no"?>
<!DOCTYPE svg PUBLIC "-//W3C//DTD SVG 20010904//EN"
 "http://www.w3.org/TR/2001/REC-SVG-20010904/DTD/svg10.dtd">
<svg xmlns="http://www.w3.org/2000/svg" width="347" height="347" viewBox="0 0 347 347" fill="none">
<g clip-path="url(#clip0_6652_12441)">
<path fill-rule="evenodd" clip-rule="evenodd" d="M346.656 173.33C346.656 269.057 269.054 346.658 173.327 346.658C77.6008 346.658 -0.000976562 269.057 -0.000976562 173.33C-0.000976562 77.6034 77.6008 0.00170898 173.327 0.00170898C269.054 0.00170898 346.656 77.6034 346.656 173.33ZM186.98 268.228C213.629 268.012 235.512 261.512 253.928 248.729L270.395 237.679L249.162 290.111L246.778 290.978C226.374 298.34 212.709 298.759 192.697 299.372C192.097 299.39 191.491 299.409 190.879 299.428H187.63C146.68 301.161 109.631 288.161 82.7649 262.812C58.282 239.195 44.6323 206.913 44.4156 171.813C44.4156 137.797 57.1987 106.165 81.2482 82.5484C107.464 56.5489 144.297 42.2492 185.246 42.6825C208.862 43.1158 222.729 44.6324 243.312 53.2989L246.995 54.8156V92.0815L238.112 87.0983C219.912 76.6985 206.696 73.0152 185.463 72.7986C157.08 72.3652 131.297 81.8984 112.664 100.098C93.8147 118.514 83.1982 143.864 82.9815 171.813C82.5482 198.68 91.8647 222.079 109.631 239.845C128.914 258.912 156.43 269.095 186.98 268.228Z" fill="black"/>
</g>
<defs>
<clipPath id="clip0_6652_12441">
<rect width="346.66" height="346.66" fill="white"/>
</clipPath>
</defs>
</svg>